<?xml version="1.0" standalone="no"?>
<!DOCTYPE svg PUBLIC "-//W3C//DTD SVG 20010904//EN" "http://www.w3.org/TR/2001/REC-SVG-20010904/DTD/svg10.dtd">
<svg version="1.0" xmlns="http://www.w3.org/2000/svg" width="1000.000000pt" height="500.000000pt" viewBox="0 0 1000.000000 500.000000" preserveAspectRatio="xMidYMid meet">
  <g transform="translate(0.000000,500.000000) scale(0.100000,-0.100000)" fill="#fff" stroke="none">
    <path d="M6113 4560 c-100 -3 -185 -9 -189 -13 -25 -25 249 -432 314 -466 9 -5 89 -12 177 -16 330 -14 475 -65 669 -235 138 -120 193 -127 330 -46 207 123 321 166 382 146 62 -21 212 -129 297 -214 146 -147 280 -364 306 -495 15 -74 3 -130 -58 -273 -22 -51 -44 -122 -50 -157 -25 -156 38 -364 188 -626 221 -384 461 -646 770 -842 10 -6 -47 -56 -118 -104 -91 -62 -101 -73 -101 -115 0 -37 38 -74 75 -74 32 0 175 108 262 196 137 140 229 307 278 498 31 122 49 302 40 400 -14 159 -31 204 -270 705 -53 112 -99 217 -102 235 -4 28 0 34 42 64 57 40 57 33 -15 227 -29 77 -97 268 -152 425 -197 568 -229 650 -256 668 -52 34 -306 57 -352 32 -11 -6 -22 -26 -26 -46 -12 -66 -27 -69 -294 -67 -422 4 -744 20 -793 38 -9 4 -19 29 -26 68 -6 33 -15 65 -21 71 -20 20 -854 30 -1307 16z m757 -151 c241 -7 430 -16 438 -22 6 -5 12 -30 12 -56 0 -25 4 -51 8 -57 5 -8 194 -22 582 -44 316 -17 592 -36 613 -41 37 -10 38 -11 35 -52 l-3 -42 39 0 c24 0 42 6 47 15 4 8 14 62 21 120 l13 105 47 3 c26 2 65 -2 88 -8 35 -10 44 -17 60 -56 11 -25 94 -271 185 -546 129 -394 162 -504 153 -515 -6 -8 -28 -23 -49 -33 -20 -11 -39 -25 -41 -31 -2 -7 44 -108 102 -224 117 -235 255 -540 296 -655 72 -202 17 -545 -123 -768 -54 -87 -90 -132 -104 -132 -14 0 -186 163 -282 268 -237 258 -442 581 -529 833 -48 142 -45 220 17 409 45 139 47 148 41 230 -7 112 -27 184 -85 305 -98 203 -326 473 -504 594 -93 64 -151 84 -228 79 -59 -3 -82 -10 -161 -53 -193 -102 -227 -117 -271 -122 -65 -8 -108 11 -191 81 -101 86 -175 129 -287 167 -91 32 -101 33 -301 38 l-207 6 -31 30 c-32 30 -140 169 -140 179 0 9 282 7 740 -5z"/>
    <path d="M315 3558 c-3 -7 -4 -413 -3 -903 l3 -890 210 0 210 0 3 348 2 347 465 0 465 0 -2 208 -3 207 -462 3 -463 2 0 130 0 130 605 0 605 0 0 215 0 215 -815 0 c-643 0 -817 -3 -820 -12z"/>
    <path d="M2140 2665 l0 -906 613 4 c518 3 622 6 678 20 333 81 550 295 630 620 26 107 36 329 20 457 -13 107 -58 250 -101 325 -107 185 -286 306 -535 362 -58 13 -174 17 -687 20 l-618 4 0 -906z m1170 464 c199 -31 327 -166 349 -366 10 -94 0 -218 -24 -283 -52 -147 -175 -251 -329 -279 -36 -7 -196 -11 -398 -11 l-338 0 0 475 0 475 338 0 c185 0 366 -5 402 -11z"/>
    <path d="M4805 3559 c-218 -33 -404 -189 -468 -394 -21 -68 -22 -84 -22 -500 0 -470 1 -478 62 -600 36 -70 164 -195 238 -233 133 -67 123 -65 642 -70 389 -3 487 -1 559 12 222 38 404 201 459 412 22 85 22 872 0 957 -49 190 -204 344 -405 404 -47 14 -124 17 -530 19 -261 1 -502 -2 -535 -7z m943 -438 c46 -24 97 -76 111 -114 7 -18 11 -145 11 -342 0 -197 -4 -324 -11 -342 -14 -38 -65 -90 -114 -116 -39 -21 -53 -22 -415 -25 -252 -2 -390 1 -420 8 -65 16 -115 53 -147 107 l-28 48 0 320 0 320 27 46 c26 44 51 66 108 96 19 10 117 13 433 13 382 0 410 -1 445 -19z"/>
    <path d="M6210 3564 c0 -4 27 -35 59 -70 73 -78 123 -164 157 -271 l26 -83 294 0 294 0 0 -690 0 -690 210 0 210 0 0 690 0 690 364 0 c201 0 367 3 369 8 8 12 -38 144 -73 211 -19 35 -65 96 -103 137 l-69 74 -869 0 c-478 0 -869 -3 -869 -6z"/>
    <path d="M8812 1100 c-30 -28 -29 -74 3 -105 13 -14 31 -25 39 -25 30 0 65 23 76 49 30 73 -61 134 -118 81z"/>
  </g>
  <g transform="translate(0.000000,500.000000) scale(0.100000,-0.100000)" fill="#fff" stroke="none">
    <path d="M4725 1513 c-1506 -73 -2940 -412 -4172 -985 l-178 -83 525 -3 525 -2 120 65 c398 216 1016 441 1645 601 601 153 1205 251 1805 295 180 13 731 14 845 2 74 -9 73 -9 -80 -16 -1414 -68 -2665 -361 -3637 -851 l-188 -95 555 2 555 2 190 91 c769 369 1755 628 2730 719 549 50 1240 44 1692 -16 145 -19 112 -4 -83 39 -574 125 -1118 198 -1744 232 -163 9 -943 11 -1105 3z"/>
  </g>
</svg>
